<svg width="17" height="20" viewBox="0 0 17 20" fill="none" xmlns="http://www.w3.org/2000/svg">
<path d="M5.31747 3.1495L5.348 3.22284C5.2708 3.25503 5.1945 3.28812 5.1182 3.32211C3.17566 5.04379 1.72235 7.35755 0.799556 9.80815C0.503328 10.5952 0.264546 11.3438 0.0769348 12.0638C0.155031 12.9268 0.353414 13.7398 0.671185 14.5018C1.09309 15.5134 1.72774 16.4418 2.57333 17.2852V17.286C3.41175 18.125 4.33993 18.7519 5.35518 19.1687C6.37043 19.5846 7.47904 19.7921 8.6819 19.7921C9.62893 19.7921 10.5212 19.6588 11.3596 19.3914C7.08138 17.3415 3.74567 15.1717 3.64423 10.9082C4.91712 13.4536 5.6514 14.856 8.39106 16.2262C8.60919 15.8989 8.84169 15.5053 9.07508 15.1977C10.251 13.6361 10.4979 14.2371 13.1361 13.6593C15.3533 13.1737 15.8569 12.1908 16.0149 9.71692C13.9996 7.99524 14.5804 9.18387 13.3381 6.37999C12.5751 4.65831 11.9332 4.517 9.90721 4.08502L10.1137 0.681009C8.28873 1.1121 6.68551 1.98591 5.31658 3.15039L5.31747 3.1495Z" fill="#DDD5C1"/>
</svg>
